<svg width="200" height="38" viewBox="0 0 200 38" fill="none" xmlns="http://www.w3.org/2000/svg">
  <path d="M24.3261 14.7036C24.3261 13.9721 24.9827 13.5669 26.0499 13.5669C27.4038 13.5669 28.2232 14.2984 28.7984 15.3526L34.0493 12.5512C32.3256 9.66923 29.3735 8.20801 26.0499 8.20801C21.7829 8.20801 18.0097 10.441 18.0097 14.8667C18.0097 21.8902 28.1011 20.7132 28.1011 22.9462C28.1011 23.7584 27.363 24.2039 25.8853 24.2039C24.0801 24.2039 22.9315 23.3514 22.3988 21.8078L17.0664 24.8126C18.6663 28.1016 21.7847 29.6435 25.8853 29.6435C30.3151 29.6435 34.4174 27.6543 34.4174 22.9848C34.4174 15.4736 24.3261 17.0173 24.3261 14.7036Z" fill="#202020" />
  <path d="M100.535 0.65625V10.6846C99.1809 9.14271 97.1702 8.20776 94.4218 8.20776C89.0486 8.20776 84.6172 12.8773 84.6172 18.9255C84.6172 24.9738 89.0471 29.6433 94.4218 29.6433C97.1702 29.6433 99.1809 28.7101 100.535 27.1664V29.0749H106.688V0.65625H100.535ZM95.6537 23.8792C92.8235 23.8792 90.7726 21.9707 90.7726 18.9255C90.7726 15.8804 92.8235 13.9719 95.6537 13.9719C98.4834 13.9719 100.535 15.8804 100.535 18.9255C100.535 21.9707 98.4834 23.8792 95.6537 23.8792Z" fill="#202020" />
  <path d="M137.345 14.7036C137.345 13.9721 138.002 13.5669 139.068 13.5669C140.422 13.5669 141.241 14.2984 141.816 15.3526L147.067 12.5512C145.343 9.66923 142.391 8.20801 139.068 8.20801C134.8 8.20801 131.027 10.441 131.027 14.8667C131.027 21.8902 141.119 20.7132 141.119 22.9462C141.119 23.7584 140.381 24.2039 138.903 24.2039C137.098 24.2039 135.949 23.3514 135.417 21.8078L130.084 24.8126C131.684 28.1016 134.8 29.6435 138.903 29.6435C143.333 29.6435 147.435 27.6543 147.435 22.9848C147.435 15.4736 137.344 17.0173 137.344 14.7036H137.345Z" fill="#202020" />
  <path d="M172.444 9.17631V10.8462C171.09 9.18156 169.122 8.20801 166.455 8.20801C160.63 8.20801 156.363 12.9179 156.363 18.5205C156.363 24.1233 160.63 28.8331 166.455 28.8331C169.122 28.8331 171.09 27.8595 172.444 26.1949V28.063C172.444 30.945 170.679 32.4062 167.808 32.4062C165.101 32.4062 163.911 31.2696 163.133 29.8487L157.882 32.8535C159.768 36.1829 164.38 37.7651 168.647 37.7651C174.104 37.7651 178.432 34.8831 178.432 28.0613V9.17631H172.444ZM167.479 23.2286C164.566 23.2286 162.517 21.3202 162.517 18.5188C162.517 15.7175 164.568 13.809 167.479 13.809C170.391 13.809 172.444 15.7175 172.444 18.5188C172.444 21.3202 170.393 23.2286 167.479 23.2286Z" fill="#202020" />
  <path d="M192.327 8.20801C189.621 8.20801 187.57 9.18156 186.462 10.6849V9.17807H180.309V29.0769H186.462V17.9943C186.462 15.1123 188.021 13.8125 190.276 13.8125C192.246 13.8125 193.846 14.9895 193.846 17.5067V29.0769H199.999V16.6121C199.999 11.1304 196.47 8.20801 192.327 8.20801Z" fill="#202020" />
  <path d="M148.818 29.0743H154.972V9.20703H148.818V29.0743Z" fill="#202020" />
  <path d="M69.7529 6.41279V0.687318C63.0845 0.28913 59.9926 3.62899 59.9926 9.19484H57.3008V14.9203H59.9926V29.0744H66.0189V14.9203H69.7547V9.19484H66.0189C66.0189 6.88818 67.5056 6.21284 69.7547 6.41103L69.7529 6.41279Z" fill="#202020" />
  <path d="M114.768 21.3495H129.33C129.494 20.5777 129.576 19.7655 129.576 18.913C129.576 12.7824 125.146 8.19531 119.157 8.19531C112.676 8.19531 108.246 12.8648 108.246 18.913C108.246 24.9613 112.595 29.6308 119.608 29.6308C123.505 29.6308 126.54 28.2099 128.551 25.4489L123.629 22.6476C122.808 23.5404 121.373 24.1895 119.692 24.1895C117.435 24.1895 115.548 23.458 114.77 21.3478L114.768 21.3495ZM114.644 16.8028C115.217 14.7329 116.777 13.5963 119.115 13.5963C120.96 13.5963 122.806 14.4488 123.463 16.8028H114.644Z" fill="#202020" />
  <path d="M46.006 29.63C52.0286 29.63 56.8638 24.9605 56.8638 18.9088C56.8638 12.857 52.0286 8.1875 46.006 8.1875C39.9833 8.1875 35.1484 12.857 35.1484 18.9088C35.1484 24.9605 39.9833 29.63 46.006 29.63ZM46.006 23.701C43.3427 23.701 41.295 21.7925 41.295 18.9088C41.295 16.025 43.3427 14.1165 46.006 14.1165C48.6697 14.1165 50.7173 16.025 50.7173 18.9088C50.7173 21.7925 48.6679 23.701 46.006 23.701Z" fill="#202020" />
  <path d="M84.263 9.20763H80.4563V0.65625H74.3042V9.20763H71.5684V14.9261H74.3042V29.0749H80.4563V14.9261H84.263V9.20763Z" fill="#202020" />
  <path d="M9.41705 13.7446L5.37486 9.73819L5.05276 9.41895L4.73066 9.73819L1.80873 12.6343L1.48662 12.9535L1.80873 13.2728L5.06692 16.5021H0V21.5049H5.0687L1.80696 24.7378L1.48486 25.0588L1.80696 25.378L4.72888 28.2741L5.05098 28.5933L5.37308 28.2741L9.41354 24.2694L9.6312 24.0554V29.637H14.7087V18.8439L9.41528 13.7446H9.41705Z" fill="#64A4EC" />
  <path d="M9.63281 12.1531V8.20801H14.7104V17.0348L9.63281 12.1531Z" fill="#64A4EC" />
</svg>